PathFileType	4	(X/Y/Z)	/Users/itak/Documents/Research/Walk-IL/dataset/trc/00254_00009.trc
DataRate	CameraRate	NumFrames	NumMarkers	Units	OrigDataRate	OrigDataStartFrame	OrigNumFrames
100.000000	100.000000	4	53	mm	100.000000	0	549
Frame#	Time	RPSI			LPSI			L3			STRN			T10			C7			CLAV			RBAK			LBAK			LSHO			LUPA			LAEL			LAOL			LWTS			LWPS			LFRA			LIFD			LHPS			LHTS			RSHO			RUPA			RAEL			RAOL			RWTS			RWPS			RFRA			RIFD			RHTS			RHPS			RBHD			LFHD			RFHD			LBHD			LHIP			RHIP			RASI			LASI			LKNE			LTHI			LANK			LTIP			LTOE			LMT1			LMT5			LHEE			RKNE			RTHI			RANK			RTIP			RTOE			RMT1			RMT5			RHEE			
		X1	Y1	Z1	X2	Y2	Z2	X3	Y3	Z3	X4	Y4	Z4	X5	Y5	Z5	X6	Y6	Z6	X7	Y7	Z7	X8	Y8	Z8	X9	Y9	Z9	X10	Y10	Z10	X11	Y11	Z11	X12	Y12	Z12	X13	Y13	Z13	X14	Y14	Z14	X15	Y15	Z15	X16	Y16	Z16	X17	Y17	Z17	X18	Y18	Z18	X19	Y19	Z19	X20	Y20	Z20	X21	Y21	Z21	X22	Y22	Z22	X23	Y23	Z23	X24	Y24	Z24	X25	Y25	Z25	X26	Y26	Z26	X27	Y27	Z27	X28	Y28	Z28	X29	Y29	Z29	X30	Y30	Z30	X31	Y31	Z31	X32	Y32	Z32	X33	Y33	Z33	X34	Y34	Z34	X35	Y35	Z35	X36	Y36	Z36	X37	Y37	Z37	X38	Y38	Z38	X39	Y39	Z39	X40	Y40	Z40	X41	Y41	Z41	X42	Y42	Z42	X43	Y43	Z43	X44	Y44	Z44	X45	Y45	Z45	X46	Y46	Z46	X47	Y47	Z47	X48	Y48	Z48	X49	Y49	Z49	X50	Y50	Z50	X51	Y51	Z51	X52	Y52	Z52	X53	Y53	Z53	

1	0	-1568.754638671875	1054.501342773438	-419.8102416992188	-1555.725219726562	1058.165893554688	-539.2359619140625	-1564.132202148438	1129.142456054688	-498.6725463867188	-1329.909790039062	1328.0322265625	-469.4876708984375	-1577.702026367188	1255.449584960938	-494.4102478027344	-1529.434936523438	1519.549682617188	-490.198974609375	-1360.584228515625	1444.170166015625	-470.2104187011719	-1605.28125	1376.67919921875	-428.3473815917969	-1537.405395507812	1482.64208984375	-602.474365234375	-1442.790771484375	1488.314208984375	-647.4025268554688	-1457.02392578125	1369.065185546875	-728.6363525390625	-1421.071533203125	1159.740600585938	-748.1878051757812	-1498.7265625	1137.754516601562	-713.9855346679688	-1315.323364257812	943.4278564453125	-659.8521118164062	-1322.790893554688	919.10791015625	-741.1506958007812	-1383.966674804688	1055.6953125	-751.3326416015625	-1292.1376953125	754.6673583984375	-648.361083984375	-1295.304443359375	834.1072387695312	-727.5894165039062	-1263.766723632812	847.4134521484375	-666.8843994140625	-1492.517211914062	1485.09619140625	-315.1511840820312	-1517.72802734375	1419.1455078125	-251.2905578613281	-1533.912109375	1136.656127929688	-216.9639739990234	-1554.062377929688	1129.856323242188	-309.8716125488281	-1383.518432617188	927.3147583007812	-242.1554565429688	-1447.864501953125	909.9576416015625	-184.0174102783203	-1507.09912109375	1068.954345703125	-200.5554351806641	-1367.386840820312	731.273681640625	-245.1528625488281	-1346.685913085938	805.7968139648438	-222.3665924072266	-1407.213500976562	803.9144287109375	-178.5152740478516	-1511.641235351562	1673.9892578125	-440.5269470214844	-1300.790771484375	1738.289184570312	-499.2133178710938	-1317.972534179688	1734.50048828125	-401.2887878417969	-1445.125366210938	1688.611694335938	-563.1278686523438	-1441.7626953125	992.9303588867188	-667.943603515625	-1480.98876953125	1014.283386230469	-302.0087280273438	-1382.525634765625	1055.701416015625	-329.5747375488281	-1346.015625	1034.825561523438	-608.41015625	-1429.97119140625	506.6893615722656	-610.2373657226562	-1421.498901367188	648.9019165039062	-645.2860107421875	-1515.275512695312	37.98701095581055	-590.2261962890625	-1479.663696289062	285.1282348632812	-614.415283203125	-1304.899291992188	46.01649475097656	-521.4688110351562	-1374.74609375	42.93655395507812	-481.302978515625	-1386.853515625	38.23771286010742	-599.823486328125	-1579.210571289062	45.32598876953125	-542.5018920898438	-1463.282470703125	521.4237670898438	-331.8169250488281	-1433.905639648438	789.2440185546875	-287.5681762695312	-1534.464477539062	41.55798721313477	-360.8636474609375	-1459.9638671875	406.1286010742188	-345.9869995117188	-1318.197021484375	46.62260055541992	-365.3685302734375	-1366.791015625	41.75076675415039	-418.7029724121094	-1429.752075195312	43.78289794921875	-316.5624694824219	-1585.545288085938	36.14996337890625	-427.8871765136719	
2	0.01	-1568.744262695312	1054.47705078125	-419.8469543457031	-1555.697143554688	1058.116821289062	-539.2764892578125	-1564.125122070312	1129.144409179688	-498.7233276367188	-1329.919677734375	1328.0625	-469.506591796875	-1577.729858398438	1255.436645507812	-494.4848937988281	-1529.487182617188	1519.5703125	-490.2747802734375	-1360.5986328125	1444.207397460938	-470.2345886230469	-1605.297485351562	1376.6767578125	-428.4037780761719	-1537.408569335938	1482.633544921875	-602.5744018554688	-1442.780151367188	1488.328125	-647.4507446289062	-1456.966186523438	1369.037841796875	-728.6637573242188	-1420.945678710938	1159.698364257812	-748.1043701171875	-1498.568969726562	1137.711181640625	-713.9568481445312	-1315.30322265625	943.4632568359375	-659.5225219726562	-1322.438720703125	919.1317138671875	-740.7365112304688	-1383.718017578125	1055.6708984375	-751.1207275390625	-1292.034912109375	754.6217041015625	-648.0101318359375	-1294.984741210938	834.1941528320312	-727.085693359375	-1263.4794921875	847.5106811523438	-666.3145141601562	-1492.558471679688	1485.1279296875	-315.2117614746094	-1517.773071289062	1419.194702148438	-251.3420867919922	-1533.878173828125	1136.701904296875	-216.9634704589844	-1554.048950195312	1129.883056640625	-309.8825988769531	-1383.468872070312	927.3760986328125	-242.1352844238281	-1447.812133789062	910.02001953125	-183.9974212646484	-1507.07861328125	1069.008911132812	-200.5622406005859	-1367.202880859375	731.39453125	-245.0993347167969	-1346.6357421875	805.8554077148438	-222.3364105224609	-1407.117309570312	803.9302978515625	-178.4260101318359	-1511.674438476562	1673.979858398438	-440.5631408691406	-1300.81787109375	1738.29345703125	-499.2326049804688	-1318.064819335938	1734.524291992188	-401.3595275878906	-1445.141357421875	1688.608642578125	-563.1729125976562	-1441.687133789062	992.9180297851562	-667.9503173828125	-1482.073852539062	1014.282104492188	-302.5005187988281	-1382.546752929688	1055.716918945312	-329.5666198730469	-1345.971801757812	1034.826293945312	-608.4069213867188	-1429.871459960938	506.6842956542969	-610.2235107421875	-1421.396240234375	648.8931884765625	-645.27685546875	-1515.27685546875	37.98334884643555	-590.2267456054688	-1479.596557617188	285.1189880371094	-614.4015502929688	-1304.890380859375	46.01367950439453	-521.4677124023438	-1374.74462890625	42.93464279174805	-481.2991943359375	-1386.83544921875	38.21830368041992	-599.8282470703125	-1579.201171875	45.3262825012207	-542.4993896484375	-1463.257690429688	521.4234619140625	-331.8151245117188	-1433.907592773438	789.2514038085938	-287.5646667480469	-1534.465087890625	41.55979919433594	-360.866455078125	-1459.939575195312	406.1275634765625	-345.9945983886719	-1318.190795898438	46.62276077270508	-365.3711853027344	-1366.735473632812	41.77082443237305	-418.7029113769531	-1429.809692382812	43.72723388671875	-316.5650329589844	-1585.545532226562	36.1501350402832	-427.887939453125	
3	0.02	-1568.733032226562	1054.449096679688	-419.8912048339844	-1555.659790039062	1058.057861328125	-539.3272094726562	-1564.114868164062	1129.147216796875	-498.7847900390625	-1329.928466796875	1328.098388671875	-469.5269470214844	-1577.76025390625	1255.422607421875	-494.5773315429688	-1529.548583984375	1519.592895507812	-490.3710632324219	-1360.615600585938	1444.249633789062	-470.2633056640625	-1605.318481445312	1376.674072265625	-428.47998046875	-1537.409912109375	1482.626342773438	-602.698486328125	-1442.755981445312	1488.337036132812	-647.5135498046875	-1456.896240234375	1369.00341796875	-728.7028198242188	-1420.803466796875	1159.644165039062	-748.0121459960938	-1498.394653320312	1137.66162109375	-713.9329833984375	-1315.285766601562	943.4937133789062	-659.1444702148438	-1322.07958984375	919.1435546875	-740.2564697265625	-1383.461669921875	1055.63037109375	-750.878662109375	-1291.947021484375	754.5281372070312	-647.5994873046875	-1294.623657226562	834.2674560546875	-726.482666015625	-1263.156982421875	847.6011962890625	-665.644775390625	-1492.6142578125	1485.166748046875	-315.292236328125	-1517.832641601562	1419.256225585938	-251.4075012207031	-1533.850708007812	1136.759399414062	-216.9687347412109	-1554.037963867188	1129.917846679688	-309.8997497558594	-1383.422119140625	927.4560546875	-242.1100463867188	-1447.756958007812	910.0977783203125	-183.9774322509766	-1507.066650390625	1069.076904296875	-200.5747680664062	-1367.012084960938	731.5368041992188	-245.0320281982422	-1346.585571289062	805.93359375	-222.2992553710938	-1407.00732421875	803.9691772460938	-178.3347320556641	-1511.71142578125	1673.963134765625	-440.6170959472656	-1300.845092773438	1738.297119140625	-499.2552795410156	-1318.1728515625	1734.551513671875	-401.4406127929688	-1445.1513671875	1688.601928710938	-563.2354125976562	-1441.576049804688	992.9000244140625	-667.9505615234375	-1483.242065429688	1014.282958984375	-303.0289001464844	-1382.572875976562	1055.737426757812	-329.5556945800781	-1345.911987304688	1034.829833984375	-608.399658203125	-1429.754028320312	506.6788330078125	-610.2066650390625	-1421.273193359375	648.8836059570312	-645.2640380859375	-1515.277954101562	37.98059844970703	-590.2272338867188	-1479.513427734375	285.1070556640625	-614.382080078125	-1304.879272460938	46.01047134399414	-521.465576171875	-1374.74169921875	42.93239974975586	-481.2939453125	-1386.819091796875	38.20184707641602	-599.8329467773438	-1579.189453125	45.32825469970703	-542.4982299804688	-1463.232666015625	521.4246215820312	-331.8120727539062	-1433.911010742188	789.26025390625	-287.5597229003906	-1534.465087890625	41.56083679199219	-360.8691711425781	-1459.915405273438	406.1284790039062	-346.0030212402344	-1318.185913085938	46.62308120727539	-365.3742980957031	-1366.679321289062	41.7918701171875	-418.7015686035156	-1429.846435546875	43.68876647949219	-316.5677795410156	-1585.546264648438	36.15126037597656	-427.8888854980469	
4	0.03	-1568.72216796875	1054.420043945312	-419.9404296875	-1555.6142578125	1057.992919921875	-539.3853759765625	-1564.101928710938	1129.150756835938	-498.8534240722656	-1329.93359375	1328.136596679688	-469.5462646484375	-1577.78955078125	1255.408813476562	-494.6826782226562	-1529.6142578125	1519.61474609375	-490.4842834472656	-1360.63330078125	1444.293579101562	-470.2947998046875	-1605.343872070312	1376.67138671875	-428.5753173828125	-1537.407470703125	1482.622314453125	-602.8409423828125	-1442.713745117188	1488.336303710938	-647.5899047851562	-1456.818237304688	1368.963256835938	-728.7537231445312	-1420.6572265625	1159.579833984375	-747.9205932617188	-1498.223266601562	1137.6103515625	-713.9213256835938	-1315.273071289062	943.5111694335938	-658.7481689453125	-1321.765502929688	919.13330078125	-739.7496337890625	-1383.23193359375	1055.570678710938	-750.6276245117188	-1291.908935546875	754.3728637695312	-647.165283203125	-1294.266967773438	834.306884765625	-725.8240966796875	-1262.840087890625	847.6679077148438	-664.9244384765625	-1492.684326171875	1485.210815429688	-315.391357421875	-1517.905395507812	1419.326904296875	-251.4845275878906	-1533.83837890625	1136.825927734375	-216.9823455810547	-1554.03271484375	1129.95947265625	-309.9238586425781	-1383.386352539062	927.5521850585938	-242.0811157226562	-1447.7060546875	910.1868286132812	-183.9604797363281	-1507.070434570312	1069.154663085938	-200.5945129394531	-1366.83203125	731.693115234375	-244.9534301757812	-1346.543334960938	806.0308837890625	-222.2567138671875	-1406.893798828125	804.037841796875	-178.2451019287109	-1511.748168945312	1673.937744140625	-440.6908569335938	-1300.868041992188	1738.299194335938	-499.2796020507812	-1318.2890625	1734.579467773438	-401.5245056152344	-1445.149291992188	1688.590087890625	-563.3156127929688	-1441.429321289062	992.8760986328125	-667.941162109375	-1484.330322265625	1014.286560058594	-303.5189514160156	-1382.602661132812	1055.7626953125	-329.5420837402344	-1345.83935546875	1034.83544921875	-608.38720703125	-1429.627075195312	506.6733703613281	-610.1874389648438	-1421.13720703125	648.8741455078125	-645.2474365234375	-1515.278442382812	37.97898864746094	-590.2274780273438	-1479.418579101562	285.0928649902344	-614.3573608398438	-1304.866333007812	46.00582885742188	-521.4618530273438	-1374.737182617188	42.92987060546875	-481.2872924804688	-1386.807739257812	38.19330596923828	-599.8375244140625	-1579.176391601562	45.332275390625	-542.4988403320312	-1463.212646484375	521.42724609375	-331.8077697753906	-1433.9169921875	789.2697143554688	-287.5525512695312	-1534.46435546875	41.56064224243164	-360.8713684082031	-1459.89501953125	406.1326293945312	-346.01171875	-1318.183227539062	46.62376022338867	-365.3775939941406	-1366.631958007812	41.81039047241211	-418.698974609375	-1429.847534179688	43.67900085449219	-316.570068359375	-1585.547241210938	36.15364074707031	-427.8900451660156	
